<?xml version="1.0" encoding="UTF-8"?>
<svg xmlns="http://www.w3.org/2000/svg" version="1.1" viewBox="0 0 800 800">
  <!-- Generator: Adobe Illustrator 29.1.0, SVG Export Plug-In . SVG Version: 2.1.0 Build 142)  -->
  <defs>
    <style>
      .st0 {
        fill: #f50;
      }

      .st1 {
        fill: #50f;
      }

      .st2 {
        opacity: .8;
      }

      .st2, .st3 {
        mix-blend-mode: hard-light;
      }

      .st4 {
        fill: #0af;
      }

      .st5 {
        fill: #231f20;
      }

      .st6 {
        fill: lime;
      }

      .st7, .st8 {
        isolation: isolate;
      }

      .st9 {
        fill: none;
        stroke: #fff;
        stroke-width: 15px;
      }

      .st10 {
        fill: #05f;
      }

      .st11, .st8 {
        fill: #fff;
      }

      .st12 {
        fill: #ff0;
      }

      .st13 {
        fill: #f0a;
      }

      .st14 {
        fill: #a0f;
      }

      .st15 {
        fill: red;
      }

      .st16 {
        fill: aqua;
      }

      .st17 {
        fill: #0fa;
      }

      .st18 {
        mix-blend-mode: soft-light;
      }

      .st19 {
        fill: #af0;
      }
    </style>
  </defs>
  <g class="st7">
    <g id="Layer_1">
      <path class="st17" d="M618.6,689.4c-15.9,4.3-32.1,6.5-48.2,6.8-16.7,27.7-40,51-67.6,67.8,60.5-17.2,115.7-49.2,160.5-92.5-13.9,7.7-28.9,13.7-44.7,17.9Z"/>
      <path class="st0" d="M570.3,104.4c16.1.3,32.3,2.6,48.2,6.8,17.7,4.8,34.5,11.8,49.9,20.9-46.3-46.7-105.1-81.7-172.4-99.4,30.6,17,56.3,41.8,74.3,71.7Z"/>
      <path class="st4" d="M228.8,696.1c-32.9-.6-65.3-9.4-94-25.4,44.1,43.1,99.1,75.8,161.6,93.3-27.7-16.8-50.9-40.2-67.6-67.9Z"/>
      <path class="st19" d="M766.2,302.9c0,34-8.6,67.6-25,97.4,16,29,24.6,61.7,25,94.9,2.6-9.9,4.8-19.9,6.6-30.2,9.8-55.7,7-110.8-6.6-162.1Z"/>
      <path class="st13" d="M228.8,104.5c18.1-30.1,44-55,74.8-72-66.2,17.3-126.2,52.3-173.9,100.4,30-17.9,64.2-27.7,99-28.3Z"/>
      <path class="st1" d="M58.1,400.3c-16.5-30-25.2-63.8-25-98.1-2.7,10.2-5,20.6-6.9,31.3-9.9,56.1-6.9,111.5,6.9,163.1.1-33.6,8.7-66.8,25-96.3Z"/>
      <path class="st1" d="M224.2,309.9c-29.2,1.2-58.5,9.3-85.5,24.9-28.4,16.4-50.9,39.2-66.7,65.5,15.8,26.3,38.3,49.1,66.7,65.5,25.7,14.9,53.6,22.9,81.4,24.7-12.6-26.1-19.7-55.4-19.7-86.3s8.6-66.3,23.8-94.4Z"/>
      <path class="st4" d="M325.9,659.1c24.9-14.4,45.3-33.7,60.6-56-65.1-4.3-121.8-39.9-155-91.9-12.3,24.9-19.2,52.9-19.2,82.4s8.5,63.7,23.4,90.6c30.7-.5,61.7-8.6,90.1-25Z"/>
      <path class="st17" d="M586.9,593.5c0-29.6-6.9-57.6-19.2-82.4-33.2,52-89.9,87.7-155,91.9,15.3,22.3,35.7,41.6,60.6,56,27.9,16.1,58.7,24.6,90.1,25.1,14.9-26.9,23.5-57.8,23.5-90.7Z"/>
      <path class="st19" d="M727.3,400.3c-15.8-26.3-38.3-49.1-66.7-65.5-27-15.6-56.3-23.7-85.5-24.9,15.2,28.1,23.8,60.2,23.8,94.4s-7.1,60.2-19.7,86.4c28.4-1.8,56.1-10.2,81.4-24.8,28.4-16.4,50.9-39.2,66.7-65.5Z"/>
      <path class="st13" d="M212.4,207c0,31.3,7.7,60.9,21.4,86.9,34.3-51.5,92-86.1,157.7-88.8-15.7-25.5-37.8-47.6-65.6-63.7-28.4-16.4-59.4-24.5-90.1-25-14.9,26.9-23.4,57.7-23.4,90.5Z"/>
      <path class="st0" d="M473.4,141.5c-27.8,16-49.8,38.1-65.6,63.7,65.7,2.7,123.3,37.3,157.7,88.8,13.7-26,21.4-55.5,21.4-86.9s-8.5-63.8-23.5-90.7c-31.3.6-62.2,9-90.1,25.1Z"/>
      <path class="st10" d="M222,683.8c-13.8-27.1-21.7-57.8-21.7-90.3s7.9-63.6,21.9-90.8c-31.2-1.5-61.8-10.4-89.7-26.5-28.1-16.2-50.8-38.3-67.4-63.9-27.5,54.5-27.9,121.5,4.8,178.2,32.8,56.7,90.9,89.8,151.9,93.3Z"/>
      <path class="st16" d="M399.6,780.8c65.5,0,123.2-33.8,156.7-84.8-31-1.6-61.3-10.5-89-26.5-28.3-16.4-51.1-38.7-67.7-64.5-16.6,25.8-39.4,48.1-67.7,64.5-28.1,16.2-58.6,24.8-89,26.4,33.5,51.1,91.2,85,156.8,85Z"/>
      <path class="st6" d="M729.2,590.5c32.8-56.7,32.3-123.7,4.8-178.2-16.6,25.5-39.2,47.7-67.4,63.9-27.8,16.1-58.5,25-89.7,26.5,14,27.2,21.9,58.1,21.9,90.8s-7.8,63.3-21.7,90.4c12.8-.7,25.6-2.8,38.3-6.2,48.3-12.9,88.7-43.9,113.7-87.2Z"/>
      <path class="st14" d="M70.1,210c-32.8,56.7-32.3,123.7-4.8,178.2,16.6-25.5,39.2-47.7,67.4-63.9,28.3-16.4,59.1-24.9,89.7-26.4-14-27.3-22-58.2-22-90.9s7.8-63.2,21.7-90.3c-61,3.4-119.2,36.5-151.9,93.3Z"/>
      <path class="st12" d="M729.2,210c-25-43.3-65.4-74.3-113.7-87.2-12.7-3.4-25.5-5.4-38.3-6.1,13.9,27.1,21.7,57.9,21.7,90.4s-7.9,63.6-22,90.9c30.6,1.5,61.4,10.1,89.7,26.4,28.1,16.2,50.8,38.3,67.4,63.9,27.5-54.5,27.9-121.5-4.8-178.2Z"/>
      <path class="st15" d="M399.6,19.8c-65.5,0-123.3,33.8-156.8,84.9,30.4,1.6,60.9,10.1,89,26.4,28.3,16.4,51.1,38.7,67.7,64.5,16.6-25.8,39.4-48.1,67.7-64.5,27.6-15.9,58-24.9,88.9-26.5-33.5-51-91.2-84.8-156.7-84.8Z"/>
      <path class="st14" d="M388.6,394c-33.4-50.8-88.1-80.4-145.3-83.9,31.6,47.8,84.6,80.4,145.3,83.9Z"/>
      <path class="st6" d="M518.5,484.5c12.4,3.3,24.9,5.3,37.5,6.1-31.6-47.9-84.7-80.5-145.4-84,25.2,38.4,63.2,65.9,107.9,77.9Z"/>
      <path class="st16" d="M399.6,412.9c-27.3,54.3-25.6,116.5,0,167.8,25.6-51.3,27.3-113.5,0-167.8Z"/>
      <path class="st10" d="M243.3,490.5c57.3-3.5,111.9-33.1,145.3-83.9-60.7,3.5-113.7,36.1-145.3,83.9Z"/>
      <path class="st15" d="M399.6,387.6c27.3-54.3,25.6-116.5,0-167.8-25.6,51.3-27.3,113.5,0,167.8Z"/>
      <path class="st12" d="M555.9,310.1c-57.3,3.5-111.9,33.1-145.3,83.9,60.7-3.5,113.7-36.1,145.3-83.9Z"/>
      <path class="st13" d="M245.4,298.2c48.5,3.3,95.2,24.2,129.9,60.1-13.5-47.4-8.6-97.6,12.1-140.8-58.9,3.8-110.4,34.9-142.1,80.8Z"/>
      <path class="st4" d="M391.6,591.3c-24.1-45-30.6-98.4-16.3-148.8-24.8,25.6-56.1,44.2-91.5,53.6-14.3,3.8-28.9,6-43.4,6.7,31.7,51.1,87.3,85.8,151.1,88.5Z"/>
      <path class="st17" d="M558.8,502.8c-14.5-.6-29-2.8-43.4-6.7-35.3-9.5-66.7-28-91.5-53.6,14.3,50.4,7.8,103.8-16.3,148.8,63.8-2.7,119.4-37.4,151.1-88.5Z"/>
      <path class="st1" d="M351,400.3c-48.6-12.2-90.2-42.3-117.3-82.9-13.7,26-21.4,55.5-21.4,86.9s6.9,57.6,19.2,82.4c27-42.3,69.5-73.8,119.5-86.4Z"/>
      <path class="st0" d="M411.8,217.4c20.7,43.3,25.6,93.4,12.1,140.8,34.8-35.9,81.4-56.8,129.9-60.1-31.6-45.9-83.2-77-142.1-80.8Z"/>
      <path class="st19" d="M586.9,404.2c0-31.3-7.7-60.9-21.4-86.9-27.1,40.6-68.7,70.7-117.3,82.9,50,12.6,92.5,44.1,119.5,86.4,12.3-24.9,19.2-52.9,19.2-82.4Z"/>
      <g class="st2">
        <path class="st5" d="M618.6,689.4c-15.9,4.3-32.1,6.5-48.2,6.8-16.7,27.7-40,51-67.6,67.8,60.5-17.2,115.7-49.2,160.5-92.5-13.9,7.7-28.9,13.7-44.7,17.9Z"/>
        <path class="st5" d="M570.3,104.4c16.1.3,32.3,2.6,48.2,6.8,17.7,4.8,34.5,11.8,49.9,20.9-46.3-46.7-105.1-81.7-172.4-99.4,30.6,17,56.3,41.8,74.3,71.7Z"/>
        <path class="st5" d="M228.8,696.1c-32.9-.6-65.3-9.4-94-25.4,44.1,43.1,99.1,75.8,161.6,93.3-27.7-16.8-50.9-40.2-67.6-67.9Z"/>
        <path class="st5" d="M766.2,302.9c0,34-8.6,67.6-25,97.4,16,29,24.6,61.7,25,94.9,2.6-9.9,4.8-19.9,6.6-30.2,9.8-55.7,7-110.8-6.6-162.1Z"/>
        <path class="st5" d="M228.8,104.5c18.1-30.1,44-55,74.8-72-66.2,17.3-126.2,52.3-173.9,100.4,30-17.9,64.2-27.7,99-28.3Z"/>
        <path class="st5" d="M58.1,400.3c-16.5-30-25.2-63.8-25-98.1-2.7,10.2-5,20.6-6.9,31.3-9.9,56.1-6.9,111.5,6.9,163.1.1-33.6,8.7-66.8,25-96.3Z"/>
      </g>
      <g class="st2">
        <path class="st5" d="M245.4,298.2c48.5,3.3,95.2,24.2,129.9,60.1-13.5-47.4-8.6-97.6,12.1-140.8-58.9,3.8-110.4,34.9-142.1,80.8Z"/>
        <path class="st5" d="M391.6,591.3c-24.1-45-30.6-98.4-16.3-148.8-24.8,25.6-56.1,44.2-91.5,53.6-14.3,3.8-28.9,6-43.4,6.7,31.7,51.1,87.3,85.8,151.1,88.5Z"/>
        <path class="st5" d="M558.8,502.8c-14.5-.6-29-2.8-43.4-6.7-35.3-9.5-66.7-28-91.5-53.6,14.3,50.4,7.8,103.8-16.3,148.8,63.8-2.7,119.4-37.4,151.1-88.5Z"/>
        <path class="st5" d="M351,400.3c-48.6-12.2-90.2-42.3-117.3-82.9-13.7,26-21.4,55.5-21.4,86.9s6.9,57.6,19.2,82.4c27-42.3,69.5-73.8,119.5-86.4Z"/>
        <path class="st5" d="M411.8,217.4c20.7,43.3,25.6,93.4,12.1,140.8,34.8-35.9,81.4-56.8,129.9-60.1-31.6-45.9-83.2-77-142.1-80.8Z"/>
        <path class="st5" d="M586.9,404.2c0-31.3-7.7-60.9-21.4-86.9-27.1,40.6-68.7,70.7-117.3,82.9,50,12.6,92.5,44.1,119.5,86.4,12.3-24.9,19.2-52.9,19.2-82.4Z"/>
      </g>
      <g class="st3">
        <path class="st5" d="M222,683.8c-13.8-27.1-21.7-57.8-21.7-90.3s7.9-63.6,21.9-90.8c-31.2-1.5-61.8-10.4-89.7-26.5-28.1-16.2-50.8-38.3-67.4-63.9-27.5,54.5-27.9,121.5,4.8,178.2,32.8,56.7,90.9,89.8,151.9,93.3Z"/>
        <path class="st5" d="M399.6,780.8c65.5,0,123.2-33.8,156.7-84.8-31-1.6-61.3-10.5-89-26.5-28.3-16.4-51.1-38.7-67.7-64.5-16.6,25.8-39.4,48.1-67.7,64.5-28.1,16.2-58.6,24.8-89,26.4,33.5,51.1,91.2,85,156.8,85Z"/>
        <path class="st5" d="M729.2,590.5c32.8-56.7,32.3-123.7,4.8-178.2-16.6,25.5-39.2,47.7-67.4,63.9-27.8,16.1-58.5,25-89.7,26.5,14,27.2,21.9,58.1,21.9,90.8s-7.8,63.3-21.7,90.4c12.8-.7,25.6-2.8,38.3-6.2,48.3-12.9,88.7-43.9,113.7-87.2Z"/>
        <path class="st5" d="M70.1,210c-32.8,56.7-32.3,123.7-4.8,178.2,16.6-25.5,39.2-47.7,67.4-63.9,28.3-16.4,59.1-24.9,89.7-26.4-14-27.3-22-58.2-22-90.9s7.8-63.2,21.7-90.3c-61,3.4-119.2,36.5-151.9,93.3Z"/>
        <path class="st5" d="M729.2,210c-25-43.3-65.4-74.3-113.7-87.2-12.7-3.4-25.5-5.4-38.3-6.1,13.9,27.1,21.7,57.9,21.7,90.4s-7.9,63.6-22,90.9c30.6,1.5,61.4,10.1,89.7,26.4,28.1,16.2,50.8,38.3,67.4,63.9,27.5-54.5,27.9-121.5-4.8-178.2Z"/>
        <path class="st5" d="M399.6,19.8c-65.5,0-123.3,33.8-156.8,84.9,30.4,1.6,60.9,10.1,89,26.4,28.3,16.4,51.1,38.7,67.7,64.5,16.6-25.8,39.4-48.1,67.7-64.5,27.6-15.9,58-24.9,88.9-26.5-33.5-51-91.2-84.8-156.7-84.8Z"/>
      </g>
      <g class="st18">
        <path class="st8" d="M222,683.8c-13.8-27.1-21.7-57.8-21.7-90.3s7.9-63.6,21.9-90.8c-31.2-1.5-61.8-10.4-89.7-26.5-28.1-16.2-50.8-38.3-67.4-63.9-27.5,54.5-27.9,121.5,4.8,178.2,32.8,56.7,90.9,89.8,151.9,93.3h.2Z"/>
        <path class="st8" d="M399.6,780.8c65.5,0,123.2-33.8,156.7-84.8-31-1.6-61.3-10.5-89-26.5-28.3-16.4-51.1-38.7-67.7-64.5-16.6,25.8-39.4,48.1-67.7,64.5-28.1,16.2-58.6,24.8-89,26.4,33.5,51.1,91.2,85,156.8,85h0Z"/>
        <path class="st8" d="M729.2,590.5c32.8-56.7,32.3-123.7,4.8-178.2-16.6,25.5-39.2,47.7-67.4,63.9-27.8,16.1-58.5,25-89.7,26.5,14,27.2,21.9,58.1,21.9,90.8s-7.8,63.3-21.7,90.4c12.8-.7,25.6-2.8,38.3-6.2,48.3-12.9,88.7-43.9,113.7-87.2h.1Z"/>
        <path class="st8" d="M70.1,210c-32.8,56.7-32.3,123.7-4.8,178.2,16.6-25.5,39.2-47.7,67.4-63.9,28.3-16.4,59.1-24.9,89.7-26.4-14-27.3-22-58.2-22-90.9s7.8-63.2,21.7-90.3c-61,3.4-119.2,36.5-151.9,93.3h0Z"/>
        <path class="st8" d="M729.2,210c-25-43.3-65.4-74.3-113.7-87.2-12.7-3.4-25.5-5.4-38.3-6.1,13.9,27.1,21.7,57.9,21.7,90.4s-7.9,63.6-22,90.9c30.6,1.5,61.4,10.1,89.7,26.4,28.1,16.2,50.8,38.3,67.4,63.9,27.5-54.5,27.9-121.5-4.8-178.2h0Z"/>
        <path class="st8" d="M399.6,19.8c-65.5,0-123.3,33.8-156.8,84.9,30.4,1.6,60.9,10.1,89,26.4,28.3,16.4,51.1,38.7,67.7,64.5,16.6-25.8,39.4-48.1,67.7-64.5,27.6-15.9,58-24.9,88.9-26.5-33.5-51-91.2-84.8-156.7-84.8h.2Z"/>
      </g>
      <path class="st11" d="M739.5,204c-26.6-46.1-69.6-79.1-121-92.8-16-4.3-32.1-6.5-48.2-6.8C535.4,46.5,472,7.8,399.6,7.8s-135.9,38.8-170.8,96.7c-67.6,1.3-132.9,36.9-169.1,99.5-36.2,62.7-34.3,137.1-1.6,196.3-32.7,59.2-34.6,133.6,1.6,196.3,36.2,62.7,101.5,98.3,169.1,99.5,34.9,57.9,98.4,96.7,170.8,96.7s135.8-38.8,170.7-96.6c16.1-.3,32.3-2.5,48.2-6.8,51.4-13.8,94.4-46.7,121-92.8,36.2-62.7,34.3-137.1,1.6-196.3,32.7-59.2,34.6-133.6-1.6-196.3ZM615.4,122.8c48.3,12.9,88.7,43.9,113.7,87.2,32.8,56.7,32.3,123.7,4.8,178.2-16.6-25.5-39.2-47.7-67.4-63.9-28.3-16.4-59.1-24.9-89.7-26.4,14-27.3,22-58.2,22-90.9s-7.8-63.2-21.7-90.4c12.8.7,25.6,2.8,38.3,6.1ZM563.4,684.2c-31.3-.6-62.2-9-90.1-25.1-24.9-14.4-45.3-33.7-60.6-56,65.1-4.3,121.8-39.9,155-91.9,12.3,24.9,19.2,52.9,19.2,82.4s-8.5,63.8-23.5,90.7ZM212.4,593.5c0-29.6,6.9-57.6,19.2-82.4,33.2,52,89.9,87.7,155,91.9-15.3,22.3-35.7,41.6-60.6,56-28.4,16.4-59.4,24.5-90.1,25-14.9-26.9-23.4-57.7-23.4-90.6ZM235.8,116.5c30.7.5,61.7,8.6,90.1,25,27.8,16,49.8,38.1,65.6,63.7-65.7,2.7-123.3,37.3-157.7,88.8-13.7-26-21.4-55.5-21.4-86.9s8.5-63.7,23.4-90.5ZM586.9,207c0,31.3-7.7,60.9-21.4,86.9-34.3-51.5-92-86.1-157.7-88.8,15.7-25.5,37.8-47.6,65.6-63.7,27.9-16.1,58.7-24.6,90.1-25.1,14.9,26.9,23.5,57.8,23.5,90.7ZM399.6,387.6c-27.3-54.3-25.6-116.5,0-167.8,25.6,51.3,27.3,113.5,0,167.8ZM399.6,412.9c27.3,54.3,25.6,116.5,0,167.8-25.6-51.3-27.3-113.5,0-167.8ZM423.9,358.2c13.5-47.4,8.6-97.6-12.1-140.8,58.9,3.8,110.4,34.9,142.1,80.8-48.5,3.3-95.2,24.2-129.9,60.1ZM555.9,310.1c-31.6,47.8-84.7,80.4-145.3,83.9,33.4-50.8,88.1-80.4,145.3-83.9ZM375.3,358.2c-34.8-35.9-81.4-56.8-129.9-60.1,31.6-45.9,83.2-77,142.1-80.8-20.7,43.3-25.6,93.4-12.1,140.8ZM388.6,394c-60.7-3.5-113.7-36.1-145.3-83.9,57.3,3.5,111.9,33.1,145.3,83.9ZM351,400.3c-50,12.6-92.5,44.1-119.5,86.4-12.3-24.9-19.2-52.9-19.2-82.4s7.7-60.9,21.4-86.9c27.1,40.6,68.7,70.7,117.3,82.9ZM388.6,406.6c-33.4,50.8-88.1,80.4-145.3,83.9,31.6-47.8,84.6-80.4,145.3-83.9ZM283.8,496.1c35.3-9.5,66.7-28,91.5-53.6-14.3,50.4-7.8,103.8,16.3,148.8-63.8-2.7-119.4-37.5-151.1-88.5,14.5-.6,29-2.8,43.4-6.7ZM424,442.5c24.8,25.6,56.1,44.2,91.5,53.6,14.3,3.8,28.9,6,43.4,6.7-31.7,51.1-87.3,85.8-151.1,88.5,24.1-45,30.6-98.4,16.3-148.8ZM410.6,406.6c60.7,3.5,113.8,36.1,145.4,84-12.5-.8-25.1-2.8-37.5-6.1-44.8-12-82.7-39.5-107.9-77.9ZM448.2,400.3c48.6-12.2,90.2-42.3,117.3-82.9,13.7,26,21.4,55.5,21.4,86.9s-6.9,57.6-19.2,82.4c-27-42.3-69.5-73.8-119.5-86.4ZM200.4,404.2c0,30.9,7.1,60.2,19.7,86.3-27.8-1.8-55.7-9.8-81.4-24.7-28.4-16.4-50.9-39.2-66.7-65.5,15.8-26.3,38.3-49.1,66.7-65.5,27-15.6,56.3-23.7,85.5-24.9-15.2,28.1-23.8,60.2-23.8,94.4ZM598.9,404.2c0-34.1-8.6-66.3-23.8-94.4,29.2,1.2,58.5,9.3,85.5,24.9,28.4,16.4,50.9,39.2,66.7,65.5-15.8,26.3-38.3,49.1-66.7,65.5-25.3,14.6-53.1,23-81.4,24.8,12.6-26.1,19.7-55.5,19.7-86.4ZM399.6,19.8c65.5,0,123.2,33.8,156.7,84.8-31,1.6-61.3,10.6-88.9,26.5-28.3,16.4-51.1,38.7-67.7,64.5-16.6-25.8-39.4-48.1-67.7-64.5-28.1-16.2-58.6-24.8-89-26.4,33.5-51.1,91.2-84.9,156.8-84.9ZM70.1,210c32.8-56.7,90.9-89.8,151.9-93.3-13.8,27.1-21.7,57.8-21.7,90.3s7.9,63.6,22,90.9c-30.6,1.5-61.4,10.1-89.7,26.4-28.1,16.2-50.8,38.3-67.4,63.9-27.5-54.5-27.9-121.5,4.8-178.2ZM70.1,590.5c-32.8-56.7-32.3-123.7-4.8-178.2,16.6,25.5,39.2,47.7,67.4,63.9,27.8,16.1,58.4,25,89.7,26.5-14,27.2-21.9,58.1-21.9,90.8s7.8,63.2,21.7,90.3c-61-3.4-119.2-36.5-151.9-93.3ZM399.6,780.8c-65.5,0-123.3-33.8-156.8-85,30.4-1.6,60.9-10.1,89-26.4,28.3-16.4,51.1-38.7,67.7-64.5,16.6,25.8,39.4,48.1,67.7,64.5,27.6,16,58,24.9,89,26.5-33.5,51-91.2,84.8-156.7,84.8ZM729.2,590.5c-25,43.3-65.4,74.3-113.7,87.2-12.7,3.4-25.5,5.4-38.3,6.2,13.9-27.1,21.7-57.9,21.7-90.4s-7.9-63.6-21.9-90.8c31.2-1.5,61.8-10.4,89.7-26.5,28.1-16.2,50.8-38.3,67.4-63.9,27.5,54.5,27.9,121.5-4.8,178.2Z"/>
      <path class="st9" d="M466.5,19.2h0c209.9,37,350.2,237.2,313.1,447.1h0c-37,209.9-237.2,350.2-447.1,313.1h0C122.4,742.5-17.7,542.3,19.3,332.4h0C56.3,122.3,256.5-17.8,466.5,19.2Z" shape-rendering="auto"/>
    </g>
  </g>
</svg>