<?xml version="1.0" encoding="UTF-8"?>
<svg id="Layer_3" xmlns="http://www.w3.org/2000/svg" version="1.1" viewBox="0 0 800 800">
  <!-- Generator: Adobe Illustrator 29.3.0, SVG Export Plug-In . SVG Version: 2.1.0 Build 146)  -->
  <defs>
    <style>
      .st0 {
        fill: #fff;
      }

      .st1 {
        opacity: .1;
      }
    </style>
  </defs>
  <g class="st1">
    <path class="st0" d="M783.2,311.4c-11.4-49.6-32-95.9-61.3-137.8-29.3-41.9-65.8-77.1-108.6-104.8-44.2-28.6-93.2-47.8-145.5-57-52.3-9.2-104.9-7.9-156.2,3.9-49.6,11.4-96,32-137.8,61.3-41.9,29.3-77.1,65.8-104.8,108.6-28.6,44.2-47.8,93.2-57,145.5-9.2,52.3-7.9,104.9,3.9,156.2,11.4,49.6,32,95.9,61.3,137.8,29.3,41.9,65.8,77.1,108.6,104.7,44.2,28.6,93.2,47.8,145.5,57,23,4.1,46,6.1,68.9,6.1s58.5-3.3,87.3-9.9c49.6-11.4,95.9-32,137.8-61.3,41.9-29.3,77.1-65.8,104.8-108.6,28.6-44.2,47.8-93.2,57-145.5,9.2-52.3,8-104.8-3.8-156.2ZM733.9,388.2c-16.6-25.5-39.2-47.7-67.4-63.9-28.3-16.4-59.1-24.9-89.7-26.4,14-27.3,22-58.2,22-90.9s-7.8-63.2-21.7-90.4c12.8.7,25.6,2.8,38.3,6.1h0c37.2,10,69.7,30.7,94.1,59.5,0,0,0,0,0,0,13.3,18.9,24.7,38.8,34.2,59.6,17.1,48.8,12.7,101.8-9.8,146.4ZM746.5,550.6c-8.2,18.8-17.9,37-29.1,54.3-4.7,7.3-9.7,14.5-15,21.4-23.4,24.6-53.3,42.4-86.9,51.4-12.7,3.4-25.5,5.4-38.3,6.2,13.9-27.1,21.7-57.9,21.7-90.4s-7.9-63.6-21.9-90.8c31.2-1.5,61.8-10.4,89.7-26.5,28.1-16.2,50.8-38.3,67.4-63.9,21.3,42.1,26.3,91.7,12.4,138.3ZM473.3,659.1c-24.9-14.4-45.3-33.7-60.6-56,65.1-4.3,121.8-39.9,155-91.9,12.3,24.9,19.2,52.9,19.2,82.4s-8.5,63.8-23.5,90.7h0c-31.3-.7-62.2-9.1-90.1-25.2ZM444.4,775.2c-30.3,3.6-60.9,3.5-91.5-.3-45.8-11.8-84.9-40.5-110.1-79.1,30.4-1.6,60.9-10.1,89-26.4,28.3-16.4,51.1-38.7,67.7-64.5,16.6,25.8,39.4,48.1,67.7,64.5,27.6,16,58,24.9,89,26.5-25.6,38.9-65.3,67.8-111.8,79.3ZM94.3,623.3c-1.7-2.3-3.3-4.6-4.9-6.9-13.8-19.7-25.6-40.5-35.4-62.2-15.4-47.6-10.6-98.8,11.3-142,16.6,25.5,39.2,47.7,67.4,63.9,27.8,16.1,58.4,25,89.7,26.5-14,27.2-21.9,58.1-21.9,90.8s7.8,63.2,21.7,90.3c-48.1-2.7-94.4-23.8-127.9-60.5ZM56.3,239.4c7.3-15.8,15.7-31,25.3-45.7,1.9-2.9,3.8-5.7,5.7-8.5,33.9-41.5,83.3-65.5,134.7-68.5-13.8,27.1-21.7,57.8-21.7,90.3s7.9,63.6,22,90.9c-30.6,1.5-61.4,10.1-89.7,26.4-28.1,16.2-50.8,38.3-67.4,63.9-22.9-45.3-27-99.3-8.9-148.8ZM373.9,21.6c8.3-.6,16.6-.8,25-.8s18.7.4,28,1.1c54,7.9,100.6,39,129.3,82.8-31,1.6-61.3,10.6-88.9,26.5-28.3,16.4-51.1,38.7-67.7,64.5-16.6-25.8-39.4-48.1-67.7-64.5-28.1-16.2-58.6-24.8-89-26.4,29-44.3,76.2-75.5,130.9-83.1ZM212.3,404.3c0-29.5,7.7-60.9,21.4-86.9,27.1,40.6,68.7,70.7,117.3,82.9-50,12.6-92.5,44.1-119.5,86.4-12.3-24.9-19.2-52.9-19.2-82.4ZM220.1,490.5c-27.8-1.8-55.7-9.8-81.4-24.7-28.4-16.4-50.9-39.2-66.7-65.5,15.8-26.3,38.3-49.1,66.7-65.5,27-15.6,56.3-23.7,85.5-24.9-15.2,28.1-23.8,60.2-23.8,94.4,0,30.9,7.1,60.2,19.7,86.2ZM410.6,406.6c60.7,3.5,113.8,36.1,145.4,84-12.5-.8-25.1-2.8-37.5-6.1-44.8-12-82.7-39.5-107.9-77.9ZM424,358.3h-.1c13.5-47.5,8.6-97.7-12.1-140.9,58.9,3.8,110.4,34.9,142.1,80.8-48.5,3.3-95.2,24.2-129.9,60.1ZM555.9,310.1c-31.6,47.8-84.7,80.4-145.3,83.9,33.4-50.8,88.1-80.4,145.3-83.9ZM399.6,387.6c-27.3-54.3-25.6-116.5,0-167.8,25.6,51.3,27.3,113.5,0,167.8ZM375.4,358.1h-.1c-34.8-35.8-81.4-56.7-129.9-60,31.6-45.9,83.2-77,142.1-80.8-20.7,43.3-25.6,93.4-12.1,140.8ZM388.6,394c-60.7-3.5-113.7-36.1-145.3-83.9,57.3,3.5,111.9,33.1,145.3,83.9ZM388.6,406.6c-33.4,50.8-88.1,80.4-145.3,83.9,31.6-47.8,84.6-80.4,145.3-83.9ZM283.9,496.1h0c35.3-9.5,66.7-28,91.5-53.6-14.3,50.4-7.8,103.8,16.3,148.8-63.8-2.7-119.4-37.5-151.1-88.5,14.5-.6,29-2.8,43.4-6.7ZM399.6,412.9h0c27.3,54.3,25.6,116.5,0,167.8-25.6-51.3-27.3-113.5,0-167.8ZM424.1,442.6c24.8,25.5,56,44.1,91.4,53.5,14.3,3.8,28.9,6,43.4,6.7-31.7,51.1-87.3,85.8-151.1,88.5,24.1-45,30.6-98.3,16.3-148.7ZM448.2,400.3c48.6-12.2,90.2-42.3,117.3-82.9,13.7,26,21.4,55.5,21.4,86.9s-6.9,57.6-19.2,82.4c-27-42.3-69.5-73.8-119.5-86.4ZM598.9,404.2c0-34.1-8.6-66.3-23.8-94.4,29.2,1.2,58.5,9.3,85.5,24.9,28.4,16.4,50.9,39.2,66.7,65.5-15.8,26.3-38.3,49.1-66.7,65.5-25.3,14.6-53.1,23-81.4,24.8,12.6-26.1,19.7-55.5,19.7-86.3ZM565.5,293.9c-34.3-51.5-92-86.1-157.7-88.8,15.7-25.5,37.8-47.6,65.6-63.7,27.9-16.1,58.7-24.6,90.1-25.1,14.9,26.9,23.5,57.8,23.5,90.7h0c0,31.3-7.7,60.9-21.4,86.9ZM325.9,141.5c27.8,16,49.8,38.1,65.6,63.7-65.7,2.7-123.3,37.3-157.7,88.8-13.7-26-21.4-55.5-21.4-86.9s8.5-63.7,23.4-90.5h0c30.7.4,61.7,8.5,90.1,24.9ZM212.5,593.4h0c0-29.5,6.9-57.5,19.2-82.3,33.2,52,89.9,87.7,155,91.9-15.3,22.3-35.7,41.6-60.6,56-28.4,16.4-59.4,24.5-90.1,25-14.9-26.9-23.4-57.7-23.4-90.6ZM666.4,130.9c-14.8-8.5-30.9-15.1-47.9-19.7-16-4.3-32.1-6.5-48.2-6.8-17.6-29.2-42.5-53.5-72.1-70.5,38,10.2,73.8,26.1,106.9,47.5,22.2,14.4,42.7,30.9,61.2,49.4ZM182.3,89.3c36.5-25.5,76.5-44.2,119.2-55.6-29.9,17-55,41.4-72.7,70.9-34.1.7-67.6,10.1-97.1,27.2,15.5-15.5,32.4-29.7,50.7-42.5ZM26.7,333.7c1.8-9.9,3.9-19.8,6.4-29.4.2,33.6,8.8,66.7,25,96-16,28.9-24.6,61.5-25,94.6-.9-3.6-1.9-7.3-2.7-11-11.3-49.4-12.6-99.9-3.7-150.2ZM136.3,671.6c28.3,15.5,60.1,24,92.5,24.5,16.4,27.3,39.2,50.3,66.3,67-35.9-10.2-69.8-25.6-101.3-45.9-20.7-13.4-39.9-28.7-57.5-45.7ZM616.6,709.3c-34.6,24.2-72.3,42.2-112.5,53.8,27-16.7,49.8-39.7,66.2-66.9,16.1-.3,32.3-2.5,48.2-6.8,15.2-4.1,29.7-9.8,43.2-17.1-14,13.4-29,25.8-45.1,37.1ZM772.2,465c-1.7,9.6-3.7,19.1-6.1,28.5-.6-32.6-9.2-64.6-25-93.2,16.1-29.2,24.7-62.1,25-95.4.8,3.3,1.7,6.6,2.4,9.9,11.3,49.4,12.6,99.9,3.7,150.2Z"/>
    <path class="st0" d="M598.9,404.1s0,0,0,0,0,0,0,0h0Z"/>
    <path class="st0" d="M200.4,404.3s0,0,0,0,0,0,0,0h0Z"/>
  </g>
</svg>