<svg width="49" height="44" viewBox="0 0 49 44" fill="none" xmlns="http://www.w3.org/2000/svg">
<path d="M20.16 5.904C17.76 8.304 15.648 11.136 13.824 14.4C12.096 17.568 10.896 20.832 10.224 24.192C10.608 24.096 11.28 24.048 12.24 24.048C14.352 24.048 16.128 24.912 17.568 26.64C19.104 28.272 19.872 30.384 19.872 32.976C19.872 35.952 18.96 38.4 17.136 40.32C15.312 42.144 12.912 43.056 9.936 43.056C6.96 43.056 4.56 41.952 2.736 39.744C0.912 37.536 0 34.416 0 30.384C0 25.2 1.344 19.824 4.032 14.256C6.72 8.592 10.368 3.84 14.976 0L20.16 5.904ZM40.464 24.048C42.672 24.048 44.496 24.912 45.936 26.64C47.472 28.272 48.24 30.384 48.24 32.976C48.24 35.952 47.328 38.4 45.504 40.32C43.68 42.144 41.28 43.056 38.304 43.056C35.232 43.056 32.784 41.952 30.96 39.744C29.136 37.536 28.224 34.416 28.224 30.384C28.224 25.296 29.568 19.92 32.256 14.256C34.944 8.592 38.592 3.84 43.2 0L48.384 5.904C45.984 8.304 43.92 11.136 42.192 14.4C40.464 17.568 39.264 20.832 38.592 24.192C38.976 24.096 39.6 24.048 40.464 24.048Z" fill="white"/>
</svg>
